<?xml version="1.0" encoding="utf-8"?>
<!-- Generator: Adobe Illustrator 21.1.0, SVG Export Plug-In . SVG Version: 6.00 Build 0)  -->
<!DOCTYPE svg PUBLIC "-//W3C//DTD SVG 1.1//EN" "http://www.w3.org/Graphics/SVG/1.1/DTD/svg11.dtd">
<svg version="1.1" id="Layer_1" xmlns="http://www.w3.org/2000/svg" xmlns:xlink="http://www.w3.org/1999/xlink" x="0px" y="0px"
	 width="169.5px" height="169.5px" viewBox="0 0 169.5 169.5" style="enable-background:new 0 0 169.5 169.5;" xml:space="preserve"
	>
<style type="text/css">
	.st0{fill:#03363D;}
	.st1{fill:#C5D76C;}
	.st2{fill:#30A8BA;}
	.st3{opacity:0.85;}
	.st4{fill:#434343;}
	.st5{fill:#444444;}
	.st6{fill:#808080;}
	.st7{fill:#FFFFFF;}
	.st8{fill:#30A3B5;}
	.st9{fill:#EFC93D;}
	.st10{fill:#30AABC;}
	.st11{fill:none;stroke:#56777A;stroke-miterlimit:10;}
	.st12{fill:none;stroke:#30A4C5;stroke-width:3;stroke-linecap:round;stroke-linejoin:round;stroke-miterlimit:10;}
	.st13{fill:#02363D;}
	.st14{fill:none;stroke:#C2C9C1;stroke-miterlimit:10;}
	.st15{fill:none;stroke:#02363D;stroke-linecap:round;stroke-linejoin:round;stroke-miterlimit:10;}
	.st16{fill:none;stroke:#01363D;stroke-width:3;stroke-miterlimit:10;}
	.st17{fill:none;stroke:#03363D;stroke-width:3;stroke-linecap:round;stroke-linejoin:round;}
	.st18{clip-path:url(#SVGID_6_);}
	.st19{fill:none;stroke:#56777A;stroke-width:5;stroke-linecap:round;stroke-linejoin:round;stroke-miterlimit:10;}
	.st20{fill:#03363D;stroke:#56777A;stroke-width:5;stroke-linecap:round;stroke-linejoin:round;stroke-miterlimit:10;}
	.st21{fill:#EFECEA;stroke:#56777A;stroke-width:5;stroke-linecap:round;stroke-linejoin:round;stroke-miterlimit:10;}
	.st22{fill:#03363D;stroke:#FFC3CB;stroke-width:5;stroke-linejoin:round;stroke-miterlimit:10;}
	.st23{fill:none;stroke:#FFC3CB;stroke-width:5;stroke-linecap:round;stroke-linejoin:round;stroke-miterlimit:10;}
	.st24{fill:#01363D;}
	.st25{fill:#00363D;}
	.st26{fill:#45FFFA;}
</style>
<circle class="st16" cx="84.8" cy="84.8" r="83.3"/>
<g>
	<path class="st0" d="M127.1,93.9c0.6,0,1.2-0.5,1.2-1.2v-5.3c0-0.6-0.5-1.2-1.2-1.2h-25.4c-0.6-3-3.2-5.3-6.4-5.3h-4.1V78h14.7
		c3.6,0,6.5-2.9,6.5-6.5V50.4c0-3.6-2.9-6.5-6.5-6.5H63.6c-3.6,0-6.5,2.9-6.5,6.5v21.2c0,3.6,2.9,6.5,6.5,6.5h14.7v2.9h-4.1
		c-3.2,0-5.8,2.3-6.4,5.3H42.5c-0.6,0-1.2,0.5-1.2,1.2v5.3c0,0.6,0.5,1.2,1.2,1.2h4.1v13.5h-4.1c-0.6,0-1.2,0.5-1.2,1.2v5.3
		c0,0.6,0.5,1.2,1.2,1.2h4.1v9.4c0,0.6,0.5,1.2,1.2,1.2H53c0.4,0,0.9-0.3,1.1-0.6l5-9.9h51.4l5,9.9c0.2,0.4,0.6,0.6,1.1,0.6h5.3
		c0.6,0,1.2-0.5,1.2-1.2V115h4.1c0.6,0,1.2-0.5,1.2-1.2v-5.3c0-0.6-0.5-1.2-1.2-1.2h-4.1V93.9H127.1z M63.6,75.6
		c-2.3,0-4.1-1.8-4.1-4.1V50.4c0-2.3,1.8-4.1,4.1-4.1h42.3c2.3,0,4.1,1.8,4.1,4.1v21.2c0,2.3-1.8,4.1-4.1,4.1H63.6z M80.6,78h8.2
		v2.9h-8.2V78z M74.2,83.3h21.2c1.9,0,3.4,1.2,3.9,2.9h-29C70.8,84.5,72.3,83.3,74.2,83.3z M43.6,91.5v-2.9h82.3v2.9H43.6z
		 M48.9,93.9h34.7v13.5H48.9V93.9z M52.3,123.2h-3.4V115h7.5L52.3,123.2z M120.6,123.2h-3.4l-4.1-8.2h7.5V123.2z M125.9,109.7v2.9
		H43.6v-2.9H125.9z M120.6,107.4H85.9V93.9h34.7V107.4z"/>
	<path class="st0" d="M79.5,96.8H53c-0.6,0-1.2,0.5-1.2,1.2v5.3c0,0.6,0.5,1.2,1.2,1.2h26.4c0.6,0,1.2-0.5,1.2-1.2V98
		C80.6,97.3,80.1,96.8,79.5,96.8z M78.3,102.1H54.2v-2.9h24.1V102.1z"/>
	<path class="st0" d="M90,104.4c0.6,0,1.2-0.5,1.2-1.2V98c0-0.6-0.5-1.2-1.2-1.2c-0.6,0-1.2,0.5-1.2,1.2v5.3
		C88.9,103.9,89.4,104.4,90,104.4z"/>
	<path class="st0" d="M95.3,104.4c0.6,0,1.2-0.5,1.2-1.2V98c0-0.6-0.5-1.2-1.2-1.2c-0.6,0-1.2,0.5-1.2,1.2v5.3
		C94.2,103.9,94.7,104.4,95.3,104.4z"/>
	<path class="st0" d="M100.6,104.4c0.6,0,1.2-0.5,1.2-1.2V98c0-0.6-0.5-1.2-1.2-1.2c-0.6,0-1.2,0.5-1.2,1.2v5.3
		C99.4,103.9,100,104.4,100.6,104.4z"/>
	<path class="st0" d="M107.1,71.5V50.4c0-0.6-0.5-1.2-1.2-1.2H63.6c-0.6,0-1.2,0.5-1.2,1.2v21.2c0,0.6,0.5,1.2,1.2,1.2h42.3
		C106.6,72.7,107.1,72.2,107.1,71.5z M104.7,70.4h-40V51.6h40V70.4z"/>
	<path class="st0" d="M105.9,104.4h10.6c0.6,0,1.2-0.5,1.2-1.2V98c0-0.6-0.5-1.2-1.2-1.2h-10.6c-0.6,0-1.2,0.5-1.2,1.2v5.3
		C104.7,103.9,105.3,104.4,105.9,104.4z M107.1,99.1h8.2v2.9h-8.2V99.1z"/>
</g>
</svg>
