<svg id="Capa_1" data-name="Capa 1" xmlns="http://www.w3.org/2000/svg" viewBox="0 0 439.73 292.65"><defs><style>.cls-1{fill:#111224;}</style></defs><title>isotipo-tecseel</title><path class="cls-1" d="M213.32,238.28c143.19-42.64,285.13-41,426.29,7.09-3.15.79-5.94-.76-8.77-1.65C559.3,221.2,486,212.42,411.14,214.64c-41.72,1.24-82.92,6.6-123.93,14.11C258.72,234,230.55,240.3,202.91,249a26.65,26.65,0,0,1-3,.51c0-17.78,0-35.26,0-52.73,0-3.12,2.4-3.19,4.29-3.91,23.81-9.09,48.35-15.66,73.25-20.85,59.38-12.38,119.46-15.83,179.92-12.75A632.14,632.14,0,0,1,603.07,183.7,280,280,0,0,1,637.89,196c-5.64-1.68-11.29-3.33-16.93-5a609.37,609.37,0,0,0-79.82-18.06,697.71,697.71,0,0,0-140-7.75c-44.52,1.88-88.45,8.49-132.09,17.24q-26,5.21-51.58,12.18c-3.45.93-4.54,2.36-4.29,5.8,0.31,4.3.08,8.64,0.08,13.79,67.84-23,137.46-31.39,208.3-31.2s139.95,10.66,206.82,34.56c-7.56-2.07-15.11-4.19-22.68-6.21a662.49,662.49,0,0,0-124.95-20.47,702.09,702.09,0,0,0-112.32,1.28c-33.68,3-67,8.51-100.17,15.13-17,3.4-33.83,7.62-50.62,12-3.18.82-4.81,2-4.47,5.69C213.63,229.39,213.32,233.91,213.32,238.28Z" transform="translate(-199.88 -158.17)"/><path class="cls-1" d="M575,256.29c-6.69-1.11-13.37-2.28-20.07-3.34a747.42,747.42,0,0,0-155.88-8,728.67,728.67,0,0,0-147.24,22.8c-2.44.64-3.23,1.44-3.07,4,2.58,41.5,14.08,79.83,40.32,112.84,21.81,27.43,50.35,45,83.18,56.18A271.25,271.25,0,0,0,402,448.85c0.85,0.19,2.12-.26,2.37,2-7.72-1.27-15.26-2.29-22.72-3.76C353.22,441.44,327,430.67,304,412.7c-28.76-22.44-47.45-51.75-58.5-86.21a209.55,209.55,0,0,1-10-62.85c0-4,1.09-5.63,5.09-6.73a646.88,646.88,0,0,1,129.63-22.29c68-4.45,135,.95,200.86,19.19,1,0.27,1.91.57,2.85,0.88,0.42,0.14.82,0.35,1.23,0.53Z" transform="translate(-199.88 -158.17)"/><path class="cls-1" d="M480.82,355a62.88,62.88,0,1,1-62.6-63.12A62.79,62.79,0,0,1,480.82,355ZM418.14,409.3a54.42,54.42,0,0,0,54.32-54.82c0-29.72-24.92-54.4-54.64-54.21A54.51,54.51,0,0,0,418.14,409.3Z" transform="translate(-199.88 -158.17)"/><path class="cls-1" d="M437.06,448.86c44.13-10.11,83.38-28.78,111.78-65.5,28.17-36.42,40-78.27,39-124,2-1.14,3.59.4,5.31,0.64a42.56,42.56,0,0,1,5.41,1.53C597.24,314.93,582,362.79,543.13,401,513.77,429.82,477.44,444.07,437.06,448.86Z" transform="translate(-199.88 -158.17)"/><path class="cls-1" d="M416.83,376.21C404.4,375,395.26,365,396.36,353.7c1.22-12.48,11.62-21.54,23.3-20.31,12.37,1.3,21,11.63,19.77,23.74C438.29,368.49,427.92,377.26,416.83,376.21Z" transform="translate(-199.88 -158.17)"/><path class="cls-1" d="M430.66,393.88c-1.58-.33-3.08-1.15-2.94-3.1a3.43,3.43,0,0,1,3.53-3.35,3,3,0,0,1,2.82,3.4C434,392.68,432.74,393.73,430.66,393.88Z" transform="translate(-199.88 -158.17)"/><path class="cls-1" d="M404.77,393.76c-1.72-.32-3-1.26-3.13-3.14a2.92,2.92,0,0,1,2.86-3.32,3,3,0,0,1,3.45,3.26C407.95,392.48,406.64,393.43,404.77,393.76Z" transform="translate(-199.88 -158.17)"/><path class="cls-1" d="M417.48,313.78c2.37-.08,3.58,1.07,3.71,2.91a3,3,0,0,1-2.93,3.33A3.15,3.15,0,0,1,417.48,313.78Z" transform="translate(-199.88 -158.17)"/><path class="cls-1" d="M455.31,345c2,0.54,3.3,1.48,3.2,3.49a3.11,3.11,0,1,1-6.21-.29C452.36,346.12,453.87,345.53,455.31,345Z" transform="translate(-199.88 -158.17)"/><path class="cls-1" d="M396.82,325.83c-0.19,1.81-1.22,3-3.17,3a2.93,2.93,0,0,1-3.07-3.2,2.88,2.88,0,0,1,3.18-3.07C395.69,322.56,396.77,323.72,396.82,325.83Z" transform="translate(-199.88 -158.17)"/><path class="cls-1" d="M450.63,370.81c2.07,0.1,3.21,1.16,3.24,3.1a2.82,2.82,0,0,1-3,3.16,2.92,2.92,0,0,1-3.19-3.07A3,3,0,0,1,450.63,370.81Z" transform="translate(-199.88 -158.17)"/><path class="cls-1" d="M388.24,373.85c-0.46,1.83-1.44,3.14-3.41,3a3,3,0,0,1-3-3.33,2.94,2.94,0,0,1,3.34-2.94C387.16,370.69,388,372,388.24,373.85Z" transform="translate(-199.88 -158.17)"/><path class="cls-1" d="M383.8,348c-0.16,1.89-1,3.15-3.06,3.21a3.1,3.1,0,1,1-.24-6.19A3,3,0,0,1,383.8,348Z" transform="translate(-199.88 -158.17)"/><path class="cls-1" d="M445.6,325.73c-0.13,1.94-1.08,3.17-3,3.24a2.84,2.84,0,0,1-3.2-3,2.8,2.8,0,0,1,3-3.19C444.35,322.69,445.33,323.85,445.6,325.73Z" transform="translate(-199.88 -158.17)"/></svg>