<svg id="Capa_5" data-name="Capa 5" xmlns="http://www.w3.org/2000/svg" viewBox="0 0 1077.24 218.55"><title>logo-tecseel</title><path d="M18.75,465.75h94.1a8.78,8.78,0,0,1-8.78,8.78H66.61V617.65A10.4,10.4,0,0,1,56.2,628h0V474.54H10A8.78,8.78,0,0,1,18.75,465.75Z" transform="translate(-9.97 -456.97)" fill="#013353"/><path d="M192.15,629.9c-35.14,0-61-24.51-61-64.73,0-40,25.43-64.27,61-64.27,37.68,0,58.49,26.82,58.49,55.95h0a12.48,12.48,0,0,1-12.48,12.48H141.75c0.92,34.91,24.51,51.56,50.4,51.56,23.19,0,40.29-11.58,45.76-30.17a5.22,5.22,0,0,1,5-3.81H243a5.17,5.17,0,0,1,4.89,6.8C240.89,614.91,221.26,629.9,192.15,629.9Zm-50.4-69.13h85.19a12.5,12.5,0,0,0,12.24-15c-5-24.58-25.8-36.11-47.26-36.11C166.26,509.68,142.91,526.09,141.75,560.77Z" transform="translate(-9.97 -456.97)" fill="#013353"/><path d="M336.42,500.89c29,0,48.84,14.34,55.86,36.58a5.28,5.28,0,0,1-5,6.89h0a5.32,5.32,0,0,1-5.08-3.92c-5.5-19.17-22.78-30.76-45.76-30.76-26.82,0-50.17,17.8-50.17,55.49,0,37.92,23.35,55.72,50.17,55.72,23,0,40.29-11.4,45.77-30.76a5.3,5.3,0,0,1,5.07-3.92h0a5.25,5.25,0,0,1,5,6.88c-7,21.95-26.86,36.82-55.83,36.82-35.37,0-60.8-24.51-60.8-64.73C275.62,525.17,301,500.89,336.42,500.89Z" transform="translate(-9.97 -456.97)" fill="#013353"/><path d="M467.51,629.9c-24.82,0-43.06-10.16-48.08-29.13a5.16,5.16,0,0,1,5-6.48h0.14a5.13,5.13,0,0,1,5,3.93c3.27,13.75,16.15,22.66,38,22.66,19.65,0,31.21-11.56,31.21-25.2,0-34.68-77-14.56-77-62.19,0-17.57,17.11-32.6,41.62-32.6,23.72,0,40.19,11.24,44.07,30.79a5.17,5.17,0,0,1-5.06,6.2h0a5.15,5.15,0,0,1-5.06-4.21c-2.6-13.68-14-24-34.16-24-18.26,0-31,10.87-31,23.81,0,38.84,76.29,18.26,76.76,62.19C508.89,615.33,491.56,629.9,467.51,629.9Z" transform="translate(-9.97 -456.97)" fill="#609b45"/><path d="M595.13,629.9c-35.14,0-61-24.51-61-64.73,0-40,25.43-64.27,61-64.27,37.68,0,58.49,26.82,58.49,55.95,0,3.15,0,5.4-.08,7.52a5.16,5.16,0,0,1-5.15,5H544.73c0.92,34.91,24.51,51.56,50.4,51.56,23.19,0,40.29-11.58,45.76-30.17a5.22,5.22,0,0,1,5-3.81H646a5.17,5.17,0,0,1,4.89,6.8C643.87,614.91,624.24,629.9,595.13,629.9Zm-50.4-69.13H638.1a5.17,5.17,0,0,0,5.16-5.32c-1-31.24-24.26-45.77-48.36-45.77C569.24,509.68,545.89,526.09,544.73,560.77Z" transform="translate(-9.97 -456.97)" fill="#609b45"/><path d="M739.63,629.9c-35.14,0-61-24.51-61-64.73,0-40,25.43-64.27,61-64.27,37.68,0,58.49,26.82,58.49,55.95,0,3.15,0,5.4-.08,7.52a5.16,5.16,0,0,1-5.15,5H689.23c0.92,34.91,24.51,51.56,50.4,51.56,23.19,0,40.29-11.58,45.76-30.17a5.22,5.22,0,0,1,5-3.81h0.15a5.17,5.17,0,0,1,4.89,6.8C788.37,614.91,768.75,629.9,739.63,629.9Zm-50.4-69.13h93.37a5.17,5.17,0,0,0,5.16-5.32c-1-31.24-24.26-45.77-48.36-45.77C713.74,509.68,690.39,526.09,689.23,560.77Z" transform="translate(-9.97 -456.97)" fill="#609b45"/><path d="M840,457h0V617.65a10.4,10.4,0,0,1-10.4,10.4h0V467.37A10.4,10.4,0,0,1,840,457Z" transform="translate(-9.97 -456.97)" fill="#609b45"/><path d="M870.62,516.09c72.75-21.67,144.87-20.84,216.59,3.6-1.6.4-3-.39-4.46-0.84-36.35-11.44-73.61-15.9-111.62-14.77a418.37,418.37,0,0,0-63,7.17,358.79,358.79,0,0,0-42.83,10.27,13.54,13.54,0,0,1-1.52.26c0-9,0-17.91,0-26.79,0-1.58,1.22-1.62,2.18-2a243.08,243.08,0,0,1,37.21-10.59c30.17-6.29,60.7-8,91.41-6.48a321.17,321.17,0,0,1,74,12.43,142.25,142.25,0,0,1,17.69,6.26c-2.87-.85-5.74-1.69-8.6-2.56a309.6,309.6,0,0,0-40.55-9.17,354.49,354.49,0,0,0-71.11-3.94c-22.62,1-44.94,4.31-67.11,8.76q-13.2,2.65-26.2,6.19c-1.75.47-2.31,1.2-2.18,2.95,0.16,2.18,0,4.39,0,7,34.47-11.71,69.84-15.95,105.83-15.85s71.1,5.42,105.08,17.56c-3.84-1.05-7.68-2.13-11.52-3.16a336.59,336.59,0,0,0-63.48-10.4,356.71,356.71,0,0,0-57.07.65,480.24,480.24,0,0,0-50.89,7.69c-8.64,1.73-17.19,3.87-25.72,6.08-1.62.42-2.44,1-2.27,2.89C870.77,511.57,870.62,513.87,870.62,516.09Z" transform="translate(-9.97 -456.97)" fill="#609b45"/><path d="M1054.38,525.24c-3.4-.57-6.79-1.16-10.2-1.7a379.74,379.74,0,0,0-79.2-4.06,370.22,370.22,0,0,0-74.81,11.58c-1.24.32-1.64,0.73-1.56,2,1.31,21.09,7.15,40.56,20.48,57.33,11.08,13.94,25.58,22.87,42.26,28.54a137.82,137.82,0,0,0,15.14,4.11c0.43,0.09,1.08-.13,1.2,1-3.92-.64-7.75-1.16-11.54-1.91-14.46-2.85-27.79-8.33-39.48-17.45-14.61-11.4-24.11-26.3-29.72-43.8A106.47,106.47,0,0,1,881.85,529c0-2,.55-2.86,2.59-3.42a328.67,328.67,0,0,1,65.86-11.33c34.55-2.26,68.61.48,102.05,9.75,0.49,0.13,1,.29,1.45.45,0.21,0.07.42,0.18,0.62,0.27Z" transform="translate(-9.97 -456.97)" fill="#609b45"/><path d="M1006.53,575.41a31.95,31.95,0,1,1-31.8-32.07A31.9,31.9,0,0,1,1006.53,575.41ZM974.68,603a27.7,27.7,0,1,0-27.76-27.46A27.65,27.65,0,0,0,974.68,603Z" transform="translate(-9.97 -456.97)" fill="#609b45"/><path d="M984.29,623.08c22.42-5.14,42.36-14.62,56.79-33.28,14.31-18.51,20.32-39.77,19.8-63,1-.58,1.83.2,2.7,0.32a21.62,21.62,0,0,1,2.75.78c-0.66,27.13-8.39,51.45-28.15,70.85C1023.27,613.41,1004.81,620.65,984.29,623.08Z" transform="translate(-9.97 -456.97)" fill="#609b45"/><path d="M974,586.17c-6.32-.6-11-5.7-10.4-11.44,0.62-6.34,5.9-10.94,11.84-10.32a11,11,0,0,1,10,12.06A10.83,10.83,0,0,1,974,586.17Z" transform="translate(-9.97 -456.97)" fill="#609b45"/><path d="M981,595.14a1.54,1.54,0,0,1-1.5-1.57,1.74,1.74,0,0,1,1.79-1.7,1.52,1.52,0,0,1,1.43,1.73A1.61,1.61,0,0,1,981,595.14Z" transform="translate(-9.97 -456.97)" fill="#609b45"/><path d="M967.89,595.08a1.71,1.71,0,0,1-1.59-1.6,1.48,1.48,0,0,1,1.45-1.69,1.53,1.53,0,0,1,1.75,1.66A1.63,1.63,0,0,1,967.89,595.08Z" transform="translate(-9.97 -456.97)" fill="#609b45"/><path d="M974.34,554.45a1.57,1.57,0,0,1,1.88,1.48,1.5,1.5,0,0,1-1.49,1.69A1.6,1.6,0,0,1,974.34,554.45Z" transform="translate(-9.97 -456.97)" fill="#609b45"/><path d="M993.56,570.32c1,0.28,1.68.75,1.62,1.77a1.58,1.58,0,1,1-3.16-.15A1.76,1.76,0,0,1,993.56,570.32Z" transform="translate(-9.97 -456.97)" fill="#609b45"/><path d="M963.85,560.57a1.59,1.59,0,0,1-3.17-.11,1.46,1.46,0,0,1,1.62-1.56A1.48,1.48,0,0,1,963.85,560.57Z" transform="translate(-9.97 -456.97)" fill="#609b45"/><path d="M991.19,583.42a1.5,1.5,0,0,1,1.65,1.58,1.43,1.43,0,0,1-1.55,1.6,1.48,1.48,0,0,1-1.62-1.56A1.52,1.52,0,0,1,991.19,583.42Z" transform="translate(-9.97 -456.97)" fill="#609b45"/><path d="M959.49,585a1.67,1.67,0,0,1-1.73,1.54,1.54,1.54,0,0,1-1.52-1.69,1.5,1.5,0,0,1,1.7-1.5A1.6,1.6,0,0,1,959.49,585Z" transform="translate(-9.97 -456.97)" fill="#609b45"/><path d="M957.23,571.81a1.52,1.52,0,0,1-1.56,1.63,1.57,1.57,0,1,1-.12-3.14A1.51,1.51,0,0,1,957.23,571.81Z" transform="translate(-9.97 -456.97)" fill="#609b45"/><path d="M988.63,560.52a1.53,1.53,0,0,1-1.55,1.65,1.44,1.44,0,0,1-1.63-1.52A1.42,1.42,0,0,1,987,559,1.5,1.5,0,0,1,988.63,560.52Z" transform="translate(-9.97 -456.97)" fill="#609b45"/><path d="M293.34,642.84a0.87,0.87,0,0,1-.63,1.5h-8.18v22.54a1,1,0,1,1-1.94,0V644.35h-8.18a0.87,0.87,0,1,1,0-1.75h18.3A0.85,0.85,0,0,1,293.34,642.84Z" transform="translate(-9.97 -456.97)" fill="#fff"/><path d="M303.68,651.12a7.69,7.69,0,0,1,2.89,3.09,9.54,9.54,0,0,1,1,4.49,0.86,0.86,0,0,1-.26.66,1,1,0,0,1-.68.24H293.13a7.21,7.21,0,0,0,1,3.41,6.4,6.4,0,0,0,2.42,2.34,6.89,6.89,0,0,0,3.4.84,7.81,7.81,0,0,0,2.54-.44,5.41,5.41,0,0,0,2-1.15,1.08,1.08,0,0,1,.68-0.26,0.85,0.85,0,0,1,.65,1.49,8.18,8.18,0,0,1-2.7,1.55,9.19,9.19,0,0,1-3.18.62,8.92,8.92,0,0,1-4.54-1.15,8.17,8.17,0,0,1-3.12-3.2,9.45,9.45,0,0,1-1.13-4.64,10.11,10.11,0,0,1,1.05-4.67,7.82,7.82,0,0,1,2.94-3.2,8.15,8.15,0,0,1,4.32-1.15A8,8,0,0,1,303.68,651.12Zm-8.47,2.38a7.12,7.12,0,0,0-2.05,4.43h12.58a6.75,6.75,0,0,0-1.94-4.43,5.94,5.94,0,0,0-4.33-1.68A5.87,5.87,0,0,0,295.21,653.5Z" transform="translate(-9.97 -456.97)" fill="#fff"/><path d="M324.12,650.91a7,7,0,0,1,2.91,2.83,8.9,8.9,0,0,1,1.05,4.45v8.7a1,1,0,1,1-1.94,0v-8.7a6.11,6.11,0,0,0-1.73-4.69,6.34,6.34,0,0,0-4.51-1.62,7.23,7.23,0,0,0-3.12.66,5.42,5.42,0,0,0-2.21,1.84,4.51,4.51,0,0,0-.81,2.6v9.89a1,1,0,0,1-.26.7,0.93,0.93,0,0,1-.71.27,0.94,0.94,0,0,1-1-1V651.14a0.93,0.93,0,0,1,.27-0.71,1,1,0,0,1,.7-0.26,0.89,0.89,0,0,1,1,1v1.68a7.69,7.69,0,0,1,2.68-2.12,7.9,7.9,0,0,1,3.46-.76A9,9,0,0,1,324.12,650.91Z" transform="translate(-9.97 -456.97)" fill="#fff"/><path d="M346.25,651.15a8.56,8.56,0,0,1,3.25,3.25,9.58,9.58,0,0,1,0,9.21,8.55,8.55,0,0,1-3.25,3.25,9.58,9.58,0,0,1-9.21,0,8.54,8.54,0,0,1-3.25-3.25,9.58,9.58,0,0,1,0-9.21,8.56,8.56,0,0,1,3.25-3.25A9.58,9.58,0,0,1,346.25,651.15ZM338,652.74a7,7,0,0,0-2.55,2.6,7.72,7.72,0,0,0,0,7.37A6.84,6.84,0,0,0,338,665.3a7.46,7.46,0,0,0,7.24,0,6.72,6.72,0,0,0,2.54-2.59,7.83,7.83,0,0,0,0-7.37,6.85,6.85,0,0,0-2.54-2.6A7.35,7.35,0,0,0,338,652.74Z" transform="translate(-9.97 -456.97)" fill="#fff"/><path d="M355.16,642.86a1,1,0,0,1,.7-0.26,0.89,0.89,0,0,1,1,1v18.95a4.35,4.35,0,0,0,.63,2.44,1.89,1.89,0,0,0,1.63,1h0.81a0.74,0.74,0,0,1,.58.26,1,1,0,0,1,.23.71,1,1,0,0,1-.26.7,0.93,0.93,0,0,1-.71.27h-0.65a3.69,3.69,0,0,1-3-1.49,6,6,0,0,1-1.18-3.85V643.57A0.93,0.93,0,0,1,355.16,642.86Z" transform="translate(-9.97 -456.97)" fill="#fff"/><path d="M376,651.15a8.56,8.56,0,0,1,3.25,3.25,9.58,9.58,0,0,1,0,9.21,8.55,8.55,0,0,1-3.25,3.25,9.58,9.58,0,0,1-9.21,0,8.54,8.54,0,0,1-3.25-3.25,9.58,9.58,0,0,1,0-9.21,8.56,8.56,0,0,1,3.25-3.25A9.58,9.58,0,0,1,376,651.15Zm-8.21,1.58a7,7,0,0,0-2.55,2.6,7.72,7.72,0,0,0,0,7.37,6.84,6.84,0,0,0,2.55,2.59,7.46,7.46,0,0,0,7.24,0,6.72,6.72,0,0,0,2.54-2.59,7.83,7.83,0,0,0,0-7.37,6.85,6.85,0,0,0-2.54-2.6A7.35,7.35,0,0,0,367.75,652.74Z" transform="translate(-9.97 -456.97)" fill="#fff"/><path d="M398,651.14a8.28,8.28,0,0,1,3.2,3.22,9.41,9.41,0,0,1,1.15,4.67v6.34a9.6,9.6,0,0,1-1.16,4.7,8.67,8.67,0,0,1-7.73,4.54,10,10,0,0,1-4.48-1,9.25,9.25,0,0,1-3.22-2.6,1,1,0,0,1-.26-0.65,0.71,0.71,0,0,1,.32-0.62,1,1,0,0,1,.58-0.19,1,1,0,0,1,.84.42,7.58,7.58,0,0,0,2.63,2,8.24,8.24,0,0,0,3.57.74,6.68,6.68,0,0,0,3.56-1,6.83,6.83,0,0,0,2.49-2.67,8,8,0,0,0,.91-3.8v-1.42a7,7,0,0,1-2.8,3,8.25,8.25,0,0,1-4.28,1.1,9.41,9.41,0,0,1-4.67-1.15,8.26,8.26,0,0,1-3.22-3.2,9.31,9.31,0,0,1-1.16-4.67,9.13,9.13,0,0,1,1.2-4.66,8.56,8.56,0,0,1,3.27-3.23,9.21,9.21,0,0,1,4.59-1.16A9.31,9.31,0,0,1,398,651.14Zm-1,14.18a6.53,6.53,0,0,0,2.52-2.55,7.57,7.57,0,0,0,.91-3.73,7.67,7.67,0,0,0-.91-3.75A6.5,6.5,0,0,0,397,652.7a7.76,7.76,0,0,0-7.34,0,6.49,6.49,0,0,0-2.52,2.57,7.66,7.66,0,0,0-.91,3.75,7.57,7.57,0,0,0,.91,3.73,6.52,6.52,0,0,0,2.52,2.55A7.76,7.76,0,0,0,397,665.31Z" transform="translate(-9.97 -456.97)" fill="#fff"/><path d="M412.24,641.63a1,1,0,0,1,1,1,0.93,0.93,0,0,1-.29.68l-4,4a0.88,0.88,0,0,1-.65.26,1,1,0,0,1-1-1,1,1,0,0,1,.23-0.65l4-4A1,1,0,0,1,412.24,641.63Zm-4.12,8.79a1,1,0,0,1,.69-0.26,0.9,0.9,0,0,1,1,1v15.75a1,1,0,0,1-.26.7,0.93,0.93,0,0,1-.71.27,0.94,0.94,0,0,1-1-1V651.14A0.93,0.93,0,0,1,408.11,650.43Z" transform="translate(-9.97 -456.97)" fill="#fff"/><path d="M428.92,651.15a8.56,8.56,0,0,1,3.25,3.25,9.17,9.17,0,0,1,1.18,4.62v7.86a1,1,0,0,1-.26.7,0.93,0.93,0,0,1-.71.27,0.94,0.94,0,0,1-1-1v-2.52a7.53,7.53,0,0,1-2.93,2.7,8.73,8.73,0,0,1-4.15,1,9.16,9.16,0,0,1-4.62-1.18,8.54,8.54,0,0,1-3.25-3.25,9.58,9.58,0,0,1,0-9.21,8.56,8.56,0,0,1,3.25-3.25A9.58,9.58,0,0,1,428.92,651.15Zm-1,14.14a6.72,6.72,0,0,0,2.54-2.59,7.83,7.83,0,0,0,0-7.37,6.85,6.85,0,0,0-2.54-2.6,7.1,7.1,0,0,0-9.8,2.6,7.72,7.72,0,0,0,0,7.37,6.84,6.84,0,0,0,2.55,2.59A7.46,7.46,0,0,0,428,665.3Z" transform="translate(-9.97 -456.97)" fill="#fff"/><path d="M462.35,650.94a1.48,1.48,0,0,1-.13.45l-10.86,23.54a0.86,0.86,0,0,1-.74.58,1.3,1.3,0,0,1-.45-0.1,0.82,0.82,0,0,1-.61-0.74,1.48,1.48,0,0,1,.13-0.45l3.23-7a1.24,1.24,0,0,1-.13-0.23l-7.08-15.52a1.14,1.14,0,0,1-.13-0.52,0.81,0.81,0,0,1,.55-0.74,1.15,1.15,0,0,1,.52-0.13,0.81,0.81,0,0,1,.74.55L453.94,665l6.6-14.32a0.86,0.86,0,0,1,.74-0.58,1.14,1.14,0,0,1,.45.1A0.82,0.82,0,0,1,462.35,650.94Z" transform="translate(-9.97 -456.97)" fill="#fff"/><path d="M487,643.41a7.76,7.76,0,0,1,2.91,2.72,1,1,0,0,1,.13.52,0.81,0.81,0,0,1-.15.47,1,1,0,0,1-.4.34,0.91,0.91,0,0,1-.39.06,1,1,0,0,1-.91-0.49,6.27,6.27,0,0,0-5.53-2.81,6.5,6.5,0,0,0-4.19,1.21,4.1,4.1,0,0,0-1.5,3.38,3.79,3.79,0,0,0,1.49,3,9.72,9.72,0,0,0,4.59,1.75A11,11,0,0,1,489,656.1a6.4,6.4,0,0,1,1.88,4.8,7.42,7.42,0,0,1-1,3.88,6.45,6.45,0,0,1-2.78,2.52,9.39,9.39,0,0,1-4.15.87,10.64,10.64,0,0,1-5.27-1.25,8,8,0,0,1-3.33-3.41,0.86,0.86,0,0,1-.1-0.39,0.85,0.85,0,0,1,.27-0.65,1,1,0,0,1,.73-0.26,1,1,0,0,1,.94.61,6,6,0,0,0,2.6,2.51,9,9,0,0,0,4.15.89,6.46,6.46,0,0,0,4.38-1.39,4.94,4.94,0,0,0,1.6-3.94,4.73,4.73,0,0,0-1.57-3.64,8.42,8.42,0,0,0-4.64-1.86,10.54,10.54,0,0,1-5.64-2.34,5.73,5.73,0,0,1-2.05-4.45,5.86,5.86,0,0,1,1-3.31,6.25,6.25,0,0,1,2.68-2.23,9.49,9.49,0,0,1,4-.79A8.56,8.56,0,0,1,487,643.41Z" transform="translate(-9.97 -456.97)" fill="#fff"/><path d="M507.44,651.12a7.69,7.69,0,0,1,2.89,3.09,9.54,9.54,0,0,1,1,4.49,0.86,0.86,0,0,1-.26.66,1,1,0,0,1-.68.24H496.88a7.21,7.21,0,0,0,1,3.41,6.4,6.4,0,0,0,2.42,2.34,6.89,6.89,0,0,0,3.4.84,7.81,7.81,0,0,0,2.54-.44,5.41,5.41,0,0,0,2-1.15,1.08,1.08,0,0,1,.68-0.26,0.85,0.85,0,0,1,.65,1.49,8.18,8.18,0,0,1-2.7,1.55,9.19,9.19,0,0,1-3.18.62,8.92,8.92,0,0,1-4.54-1.15,8.17,8.17,0,0,1-3.12-3.2,9.45,9.45,0,0,1-1.13-4.64,10.11,10.11,0,0,1,1.05-4.67,7.82,7.82,0,0,1,2.94-3.2,8.15,8.15,0,0,1,4.32-1.15A8,8,0,0,1,507.44,651.12ZM499,653.5a7.12,7.12,0,0,0-2.05,4.43h12.58a6.75,6.75,0,0,0-1.94-4.43,5.94,5.94,0,0,0-4.33-1.68A5.87,5.87,0,0,0,499,653.5Z" transform="translate(-9.97 -456.97)" fill="#fff"/><path d="M527.68,651.14a8.28,8.28,0,0,1,3.2,3.22A9.41,9.41,0,0,1,532,659v6.34a9.6,9.6,0,0,1-1.16,4.7,8.67,8.67,0,0,1-7.73,4.54,10,10,0,0,1-4.48-1,9.25,9.25,0,0,1-3.22-2.6,1,1,0,0,1-.26-0.65,0.71,0.71,0,0,1,.32-0.62,1,1,0,0,1,.58-0.19,1,1,0,0,1,.84.42,7.58,7.58,0,0,0,2.63,2,8.24,8.24,0,0,0,3.57.74,6.68,6.68,0,0,0,3.56-1,6.83,6.83,0,0,0,2.49-2.67,8,8,0,0,0,.91-3.8v-1.42a7,7,0,0,1-2.8,3A8.25,8.25,0,0,1,523,668a9.41,9.41,0,0,1-4.67-1.15,8.26,8.26,0,0,1-3.22-3.2A9.31,9.31,0,0,1,514,659a9.13,9.13,0,0,1,1.2-4.66,8.56,8.56,0,0,1,3.27-3.23A9.21,9.21,0,0,1,523,650,9.31,9.31,0,0,1,527.68,651.14Zm-1,14.18a6.53,6.53,0,0,0,2.52-2.55,7.57,7.57,0,0,0,.91-3.73,7.67,7.67,0,0,0-.91-3.75,6.5,6.5,0,0,0-2.52-2.57,7.76,7.76,0,0,0-7.34,0,6.49,6.49,0,0,0-2.52,2.57,7.66,7.66,0,0,0-.91,3.75,7.57,7.57,0,0,0,.91,3.73,6.52,6.52,0,0,0,2.52,2.55A7.76,7.76,0,0,0,526.66,665.31Z" transform="translate(-9.97 -456.97)" fill="#fff"/><path d="M552.56,650.43a1,1,0,0,1,.26.71v15.75a1,1,0,0,1-.26.7,1,1,0,0,1-1.68-.7V665.2a7.68,7.68,0,0,1-2.68,2.12,7.89,7.89,0,0,1-3.46.76,9,9,0,0,1-4.22-1,7,7,0,0,1-2.91-2.83,8.89,8.89,0,0,1-1.05-4.45v-8.7a1,1,0,1,1,1.94,0v8.7a6.11,6.11,0,0,0,1.73,4.69,6.34,6.34,0,0,0,4.51,1.62,7.23,7.23,0,0,0,3.12-.66,5.42,5.42,0,0,0,2.21-1.84,4.5,4.5,0,0,0,.81-2.6v-9.89a0.93,0.93,0,0,1,.28-0.71A1.08,1.08,0,0,1,552.56,650.43Z" transform="translate(-9.97 -456.97)" fill="#fff"/><path d="M568.59,651a1,1,0,0,1-.34.76,1,1,0,0,1-.57.15,5.83,5.83,0,0,1-.76-0.06,6,6,0,0,0-3.67.61,5,5,0,0,0-2,1.88,5.15,5.15,0,0,0-.71,2.68v9.83a1,1,0,0,1-.26.7,0.93,0.93,0,0,1-.71.27,0.94,0.94,0,0,1-1-1V651.14a0.93,0.93,0,0,1,.27-0.71,1,1,0,0,1,.7-0.26,0.9,0.9,0,0,1,1,1v2a6.87,6.87,0,0,1,2.39-2.33,6.22,6.22,0,0,1,3.17-.84Q568.59,650,568.59,651Z" transform="translate(-9.97 -456.97)" fill="#fff"/><path d="M575.46,643.83a1.39,1.39,0,0,1,.44,1.1,1.49,1.49,0,0,1-1.52,1.52,1.42,1.42,0,0,1-1.07-.44,1.5,1.5,0,0,1-.42-1.08,1.37,1.37,0,0,1,.45-1.1,1.58,1.58,0,0,1,1.07-.39A1.53,1.53,0,0,1,575.46,643.83Zm-1.75,6.6a1,1,0,0,1,.7-0.26,0.89,0.89,0,0,1,1,1v15.75a1,1,0,0,1-.26.7,0.93,0.93,0,0,1-.71.27,0.94,0.94,0,0,1-1-1V651.14A0.93,0.93,0,0,1,573.72,650.43Z" transform="translate(-9.97 -456.97)" fill="#fff"/><path d="M598.69,642.86a1,1,0,0,1,.26.71v15.62a9,9,0,0,1-1.23,4.53,8.53,8.53,0,0,1-3.25,3.18,9.6,9.6,0,0,1-9.17,0,8.55,8.55,0,0,1-3.25-3.25,9.58,9.58,0,0,1,0-9.21,8.56,8.56,0,0,1,3.25-3.25,9.16,9.16,0,0,1,4.62-1.18,8.73,8.73,0,0,1,4.15,1,7.53,7.53,0,0,1,2.93,2.7V643.57a0.93,0.93,0,0,1,.28-0.71,1,1,0,0,1,.7-0.26A1,1,0,0,1,598.69,642.86Zm-5.14,22.42a6.85,6.85,0,0,0,2.54-2.6,7.84,7.84,0,0,0,0-7.37,6.74,6.74,0,0,0-2.54-2.59,7.46,7.46,0,0,0-7.24,0,6.85,6.85,0,0,0-2.55,2.59,7.72,7.72,0,0,0,0,7.37A7.21,7.21,0,0,0,593.55,665.28Z" transform="translate(-9.97 -456.97)" fill="#fff"/><path d="M617.45,651.15a8.57,8.57,0,0,1,3.25,3.25,9.16,9.16,0,0,1,1.18,4.62v7.86a1,1,0,0,1-.26.7,0.93,0.93,0,0,1-.71.27,0.94,0.94,0,0,1-1-1v-2.52a7.52,7.52,0,0,1-2.93,2.7,8.73,8.73,0,0,1-4.15,1,9.16,9.16,0,0,1-4.62-1.18,8.55,8.55,0,0,1-3.25-3.25,9.58,9.58,0,0,1,0-9.21,8.56,8.56,0,0,1,3.25-3.25A9.58,9.58,0,0,1,617.45,651.15Zm-1,14.14a6.73,6.73,0,0,0,2.54-2.59,7.84,7.84,0,0,0,0-7.37,6.85,6.85,0,0,0-2.54-2.6,7.1,7.1,0,0,0-9.8,2.6,7.72,7.72,0,0,0,0,7.37,6.84,6.84,0,0,0,2.55,2.59A7.46,7.46,0,0,0,616.48,665.3Z" transform="translate(-9.97 -456.97)" fill="#fff"/><path d="M643.57,642.86a1,1,0,0,1,.26.71v15.62a9,9,0,0,1-1.23,4.53,8.53,8.53,0,0,1-3.25,3.18,9.6,9.6,0,0,1-9.17,0,8.55,8.55,0,0,1-3.25-3.25,9.58,9.58,0,0,1,0-9.21,8.56,8.56,0,0,1,3.25-3.25,9.16,9.16,0,0,1,4.62-1.18,8.73,8.73,0,0,1,4.15,1,7.53,7.53,0,0,1,2.93,2.7V643.57a0.93,0.93,0,0,1,.28-0.71,1,1,0,0,1,.7-0.26A1,1,0,0,1,643.57,642.86Zm-5.14,22.42a6.85,6.85,0,0,0,2.54-2.6,7.84,7.84,0,0,0,0-7.37,6.74,6.74,0,0,0-2.54-2.59,7.46,7.46,0,0,0-7.24,0,6.85,6.85,0,0,0-2.55,2.59,7.72,7.72,0,0,0,0,7.37A7.21,7.21,0,0,0,638.43,665.28Z" transform="translate(-9.97 -456.97)" fill="#fff"/><path d="M676.65,666.2a0.93,0.93,0,0,1,.29.68,0.91,0.91,0,0,1-.29.7,1,1,0,0,1-.68.27H660.42a0.94,0.94,0,0,1-1-1V643.57a0.94,0.94,0,0,1,1-1H676a1,1,0,0,1,.68.27,0.91,0.91,0,0,1,.29.7,1,1,0,0,1-1,1H661.39v9.7h10.7a0.94,0.94,0,0,1,1,1,1,1,0,0,1-.27.71,0.91,0.91,0,0,1-.7.29h-10.7v9.7H676A0.93,0.93,0,0,1,676.65,666.2Z" transform="translate(-9.97 -456.97)" fill="#fff"/><path d="M680.93,642.86a1,1,0,0,1,.7-0.26,0.89,0.89,0,0,1,1,1v18.95a4.34,4.34,0,0,0,.63,2.44,1.89,1.89,0,0,0,1.63,1h0.81a0.74,0.74,0,0,1,.58.26,1,1,0,0,1,.23.71,1,1,0,0,1-.26.7,0.93,0.93,0,0,1-.71.27h-0.65a3.69,3.69,0,0,1-3-1.49,6,6,0,0,1-1.18-3.85V643.57A0.93,0.93,0,0,1,680.93,642.86Z" transform="translate(-9.97 -456.97)" fill="#fff"/><path d="M700.62,651.12a7.69,7.69,0,0,1,2.89,3.09,9.54,9.54,0,0,1,1,4.49,0.86,0.86,0,0,1-.26.66,1,1,0,0,1-.68.24H690.06a7.21,7.21,0,0,0,1,3.41,6.4,6.4,0,0,0,2.43,2.34,6.89,6.89,0,0,0,3.39.84,7.81,7.81,0,0,0,2.54-.44,5.41,5.41,0,0,0,2-1.15,1.07,1.07,0,0,1,.68-0.26,0.85,0.85,0,0,1,.65,1.49,8.18,8.18,0,0,1-2.7,1.55,9.19,9.19,0,0,1-3.18.62,8.92,8.92,0,0,1-4.54-1.15,8.18,8.18,0,0,1-3.12-3.2,9.45,9.45,0,0,1-1.13-4.64,10.12,10.12,0,0,1,1.05-4.67,7.83,7.83,0,0,1,2.94-3.2A8.15,8.15,0,0,1,696.4,650,8,8,0,0,1,700.62,651.12Zm-8.47,2.38a7.12,7.12,0,0,0-2.05,4.43h12.58a6.75,6.75,0,0,0-1.94-4.43,5.94,5.94,0,0,0-4.33-1.68A5.87,5.87,0,0,0,692.15,653.5Z" transform="translate(-9.97 -456.97)" fill="#fff"/><path d="M719.23,650.81a8.32,8.32,0,0,1,3,2.39,1,1,0,0,1,.23.55,0.79,0.79,0,0,1-.45.71,0.77,0.77,0,0,1-.52.19,0.89,0.89,0,0,1-.74-0.39,6.59,6.59,0,0,0-5.27-2.46,6,6,0,0,0-5.58,3.49,8.48,8.48,0,0,0-.79,3.72,7.76,7.76,0,0,0,.87,3.69,6.52,6.52,0,0,0,2.42,2.59,6.73,6.73,0,0,0,3.56.94,6.45,6.45,0,0,0,4.56-1.58,0.93,0.93,0,0,1,.68-0.29,0.79,0.79,0,0,1,.58.23,0.92,0.92,0,0,1,.32.71,0.74,0.74,0,0,1-.26.58,8,8,0,0,1-2.65,1.6,9.2,9.2,0,0,1-3.23.57,8.69,8.69,0,0,1-4.49-1.18,8.44,8.44,0,0,1-3.15-3.25,9.3,9.3,0,0,1-1.15-4.59,9.84,9.84,0,0,1,1.07-4.61,8.12,8.12,0,0,1,3-3.23,7.94,7.94,0,0,1,4.27-1.18A8.77,8.77,0,0,1,719.23,650.81Z" transform="translate(-9.97 -456.97)" fill="#fff"/><path d="M736,666.15a1,1,0,0,1,.28.73,0.94,0.94,0,0,1-.28.7,1,1,0,0,1-.73.27h-0.74a6.19,6.19,0,0,1-3.17-.81,5.7,5.7,0,0,1-2.17-2.21,6.48,6.48,0,0,1-.78-3.18v-9.08h-2.52a0.87,0.87,0,1,1,0-1.75h2.52v-5.27a1,1,0,0,1,.27-0.73,0.94,0.94,0,0,1,.7-0.27,0.94,0.94,0,0,1,1,1v5.27h4.27a0.87,0.87,0,1,1,0,1.75h-4.27v9.08a4.16,4.16,0,0,0,1.16,3.06,4,4,0,0,0,3,1.18h0.71A1,1,0,0,1,736,666.15Z" transform="translate(-9.97 -456.97)" fill="#fff"/><path d="M750.26,651a1,1,0,0,1-.34.76,1,1,0,0,1-.57.15,5.83,5.83,0,0,1-.76-0.06,6,6,0,0,0-3.67.61,5,5,0,0,0-2,1.88,5.15,5.15,0,0,0-.71,2.68v9.83a1,1,0,0,1-.26.7,0.93,0.93,0,0,1-.71.27,0.94,0.94,0,0,1-1-1V651.14a0.93,0.93,0,0,1,.27-0.71,1,1,0,0,1,.7-0.26,0.9,0.9,0,0,1,1,1v2a6.87,6.87,0,0,1,2.39-2.33,6.22,6.22,0,0,1,3.17-.84Q750.26,650,750.26,651Z" transform="translate(-9.97 -456.97)" fill="#fff"/><path d="M765.85,651.15a8.57,8.57,0,0,1,3.25,3.25,9.58,9.58,0,0,1,0,9.21,8.55,8.55,0,0,1-3.25,3.25,9.58,9.58,0,0,1-9.21,0,8.55,8.55,0,0,1-3.25-3.25,9.58,9.58,0,0,1,0-9.21,8.56,8.56,0,0,1,3.25-3.25A9.58,9.58,0,0,1,765.85,651.15Zm-8.21,1.58a7,7,0,0,0-2.55,2.6,7.72,7.72,0,0,0,0,7.37,6.84,6.84,0,0,0,2.55,2.59,7.46,7.46,0,0,0,7.24,0,6.73,6.73,0,0,0,2.54-2.59,7.84,7.84,0,0,0,0-7.37,6.85,6.85,0,0,0-2.54-2.6A7.35,7.35,0,0,0,757.64,652.74Zm7-11.11a1,1,0,0,1,1,1,0.93,0.93,0,0,1-.29.68l-4,4a0.88,0.88,0,0,1-.65.26,1,1,0,0,1-1-1,1,1,0,0,1,.23-0.65l4-4A1,1,0,0,1,764.68,641.63Z" transform="translate(-9.97 -456.97)" fill="#fff"/><path d="M787.43,650.91a7,7,0,0,1,2.91,2.83,8.9,8.9,0,0,1,1.05,4.45v8.7a1,1,0,1,1-1.94,0v-8.7a6.11,6.11,0,0,0-1.73-4.69,6.34,6.34,0,0,0-4.51-1.62,7.23,7.23,0,0,0-3.12.66,5.42,5.42,0,0,0-2.21,1.84,4.51,4.51,0,0,0-.81,2.6v9.89a1,1,0,0,1-.26.7,0.93,0.93,0,0,1-.71.27,0.94,0.94,0,0,1-1-1V651.14a0.93,0.93,0,0,1,.27-0.71,1,1,0,0,1,.7-0.26,0.9,0.9,0,0,1,1,1v1.68a7.68,7.68,0,0,1,2.68-2.12,7.9,7.9,0,0,1,3.46-.76A9,9,0,0,1,787.43,650.91Z" transform="translate(-9.97 -456.97)" fill="#fff"/><path d="M799.55,643.83a1.39,1.39,0,0,1,.44,1.1,1.49,1.49,0,0,1-1.52,1.52,1.42,1.42,0,0,1-1.07-.44,1.5,1.5,0,0,1-.42-1.08,1.37,1.37,0,0,1,.45-1.1,1.58,1.58,0,0,1,1.07-.39A1.53,1.53,0,0,1,799.55,643.83Zm-1.75,6.6a1,1,0,0,1,.7-0.26,0.89,0.89,0,0,1,1,1v15.75a1,1,0,0,1-.26.7,0.93,0.93,0,0,1-.71.27,0.94,0.94,0,0,1-1-1V651.14A0.93,0.93,0,0,1,797.81,650.43Z" transform="translate(-9.97 -456.97)" fill="#fff"/><path d="M817.06,650.81a8.32,8.32,0,0,1,3,2.39,1,1,0,0,1,.23.55,0.79,0.79,0,0,1-.45.71,0.77,0.77,0,0,1-.52.19,0.89,0.89,0,0,1-.74-0.39,6.59,6.59,0,0,0-5.27-2.46,6,6,0,0,0-5.58,3.49,8.48,8.48,0,0,0-.79,3.72,7.76,7.76,0,0,0,.87,3.69,6.52,6.52,0,0,0,2.42,2.59,6.73,6.73,0,0,0,3.56.94,6.45,6.45,0,0,0,4.56-1.58,0.93,0.93,0,0,1,.68-0.29,0.79,0.79,0,0,1,.58.23,0.92,0.92,0,0,1,.32.71,0.74,0.74,0,0,1-.26.58,8,8,0,0,1-2.65,1.6,9.2,9.2,0,0,1-3.23.57,8.69,8.69,0,0,1-4.49-1.18,8.44,8.44,0,0,1-3.15-3.25A9.3,9.3,0,0,1,805,659a9.84,9.84,0,0,1,1.07-4.61,8.12,8.12,0,0,1,3-3.23,7.94,7.94,0,0,1,4.27-1.18A8.77,8.77,0,0,1,817.06,650.81Z" transform="translate(-9.97 -456.97)" fill="#fff"/><path d="M837.79,651.15A8.57,8.57,0,0,1,841,654.4a9.16,9.16,0,0,1,1.18,4.62v7.86a1,1,0,0,1-.26.7,0.93,0.93,0,0,1-.71.27,0.94,0.94,0,0,1-1-1v-2.52a7.52,7.52,0,0,1-2.93,2.7,8.73,8.73,0,0,1-4.15,1,9.16,9.16,0,0,1-4.62-1.18,8.55,8.55,0,0,1-3.25-3.25,9.58,9.58,0,0,1,0-9.21,8.56,8.56,0,0,1,3.25-3.25A9.58,9.58,0,0,1,837.79,651.15Zm-1,14.14a6.73,6.73,0,0,0,2.54-2.59,7.84,7.84,0,0,0,0-7.37,6.85,6.85,0,0,0-2.54-2.6,7.1,7.1,0,0,0-9.8,2.6,7.72,7.72,0,0,0,0,7.37,6.84,6.84,0,0,0,2.55,2.59A7.46,7.46,0,0,0,836.82,665.3Z" transform="translate(-9.97 -456.97)" fill="#fff"/></svg>